<?xml version="1.0" encoding="UTF-8"?>
<svg xmlns="http://www.w3.org/2000/svg" version="1.1" width="200" height="200" viewBox="0 0 200 200"><rect x="0" y="0" width="200" height="200" fill="#ffffff"/><g transform="scale(6.897)"><g transform="translate(0,0)"><path fill-rule="evenodd" d="M8 0L8 4L10 4L10 3L11 3L11 4L12 4L12 2L11 2L11 0ZM12 0L12 1L13 1L13 2L15 2L15 1L16 1L16 3L13 3L13 4L14 4L14 5L16 5L16 7L17 7L17 11L16 11L16 8L15 8L15 6L14 6L14 8L15 8L15 10L14 10L14 9L12 9L12 8L13 8L13 5L11 5L11 6L10 6L10 7L9 7L9 5L8 5L8 7L9 7L9 8L10 8L10 7L11 7L11 6L12 6L12 8L11 8L11 9L9 9L9 10L11 10L11 11L10 11L10 13L9 13L9 11L8 11L8 9L7 9L7 8L4 8L4 9L2 9L2 8L0 8L0 9L2 9L2 11L1 11L1 12L2 12L2 13L3 13L3 14L4 14L4 15L1 15L1 16L0 16L0 18L1 18L1 16L2 16L2 17L5 17L5 18L6 18L6 19L5 19L5 20L3 20L3 21L5 21L5 20L6 20L6 21L7 21L7 20L8 20L8 22L9 22L9 23L8 23L8 25L9 25L9 27L8 27L8 29L10 29L10 28L12 28L12 29L14 29L14 27L15 27L15 29L16 29L16 27L17 27L17 29L18 29L18 26L17 26L17 25L18 25L18 24L19 24L19 26L20 26L20 27L19 27L19 29L22 29L22 28L24 28L24 29L25 29L25 27L26 27L26 26L27 26L27 29L28 29L28 28L29 28L29 24L28 24L28 23L29 23L29 17L28 17L28 16L29 16L29 13L28 13L28 12L29 12L29 8L25 8L25 9L24 9L24 8L23 8L23 9L22 9L22 10L23 10L23 13L20 13L20 12L19 12L19 9L20 9L20 10L21 10L21 9L20 9L20 8L19 8L19 9L18 9L18 7L19 7L19 6L20 6L20 7L21 7L21 4L20 4L20 3L21 3L21 2L20 2L20 1L19 1L19 0L18 0L18 2L17 2L17 0L14 0L14 1L13 1L13 0ZM9 2L9 3L10 3L10 2ZM16 3L16 4L17 4L17 7L18 7L18 6L19 6L19 5L20 5L20 4L19 4L19 5L18 5L18 3ZM5 9L5 10L7 10L7 9ZM11 9L11 10L12 10L12 9ZM23 9L23 10L24 10L24 13L23 13L23 14L24 14L24 13L26 13L26 14L25 14L25 16L24 16L24 15L23 15L23 16L21 16L21 14L20 14L20 13L19 13L19 12L18 12L18 13L19 13L19 14L18 14L18 15L19 15L19 16L18 16L18 17L19 17L19 19L18 19L18 18L17 18L17 19L15 19L15 17L16 17L16 16L17 16L17 15L16 15L16 16L15 16L15 17L14 17L14 15L13 15L13 14L14 14L14 11L12 11L12 12L11 12L11 13L10 13L10 15L8 15L8 13L6 13L6 12L8 12L8 11L5 11L5 12L4 12L4 11L2 11L2 12L3 12L3 13L4 13L4 14L7 14L7 15L6 15L6 16L7 16L7 17L6 17L6 18L8 18L8 19L9 19L9 21L10 21L10 22L11 22L11 23L9 23L9 24L12 24L12 25L11 25L11 26L12 26L12 25L13 25L13 26L14 26L14 25L13 25L13 24L14 24L14 22L15 22L15 21L14 21L14 19L15 19L15 20L16 20L16 21L17 21L17 19L18 19L18 20L19 20L19 22L20 22L20 20L21 20L21 19L22 19L22 20L26 20L26 21L25 21L25 22L27 22L27 23L25 23L25 25L24 25L24 27L25 27L25 25L27 25L27 26L28 26L28 24L27 24L27 23L28 23L28 20L27 20L27 19L28 19L28 18L27 18L27 15L28 15L28 14L27 14L27 11L28 11L28 10L24 10L24 9ZM15 11L15 13L16 13L16 11ZM21 11L21 12L22 12L22 11ZM12 12L12 13L13 13L13 12ZM0 13L0 14L1 14L1 13ZM26 14L26 15L27 15L27 14ZM12 15L12 16L10 16L10 17L9 17L9 16L8 16L8 17L9 17L9 18L10 18L10 20L12 20L12 21L13 21L13 22L14 22L14 21L13 21L13 20L12 20L12 19L13 19L13 18L14 18L14 17L12 17L12 16L13 16L13 15ZM19 16L19 17L20 17L20 18L21 18L21 17L20 17L20 16ZM25 16L25 17L24 17L24 19L27 19L27 18L25 18L25 17L26 17L26 16ZM10 17L10 18L12 18L12 17ZM22 17L22 18L23 18L23 17ZM6 19L6 20L7 20L7 19ZM0 20L0 21L2 21L2 20ZM21 21L21 24L24 24L24 21ZM16 22L16 23L18 23L18 22ZM22 22L22 23L23 23L23 22ZM12 23L12 24L13 24L13 23ZM19 23L19 24L20 24L20 23ZM15 24L15 25L17 25L17 24ZM20 25L20 26L21 26L21 27L23 27L23 25ZM9 27L9 28L10 28L10 27ZM12 27L12 28L13 28L13 27ZM0 0L0 7L7 7L7 0ZM1 1L1 6L6 6L6 1ZM2 2L2 5L5 5L5 2ZM22 0L22 7L29 7L29 0ZM23 1L23 6L28 6L28 1ZM24 2L24 5L27 5L27 2ZM0 22L0 29L7 29L7 22ZM1 23L1 28L6 28L6 23ZM2 24L2 27L5 27L5 24Z" fill="#000000"/></g></g></svg>
